<svg fill="none" xmlns="http://www.w3.org/2000/svg" viewBox="0 0 136 136" id="te-f2c6201e-eb7ff2d5-baf3471a">
    <g filter="url(#filter0_d_4314_11435)">
        <path
            d="M50.45 129.998c-5.676 1.96-11.856-1.059-13.812-6.721l-2.467-7.147-1.322-.62-1.625-1.008-4.1-3.276s-1.237-3.003-1.441-3.594L5.138 48.135c-2.434-7.05 1.3-14.724 8.35-17.158l58.384-20.16a7.835 7.835 0 0 1 3.744-.34l7.369 1.117a7.923 7.923 0 0 0 3.744-.34l5.346-1.845c5.676-1.96 11.856 1.059 13.812 6.721l25.684 74.381c1.96 5.676-1.059 11.857-6.721 13.812l-74.395 25.689-.005-.014Z"
            fill="#fff"></path>
        <path
            d="m94.753 17.192-74.38 25.684a2.617 2.617 0 0 0-1.62 3.328l25.684 74.381a2.617 2.617 0 0 0 3.328 1.619l74.381-25.684a2.618 2.618 0 0 0 1.62-3.328l-25.685-74.38a2.617 2.617 0 0 0-3.328-1.62Z"
            fill="#231F20"></path>
        <path
            d="m79.84 18.54 14.02 7.28a5.274 5.274 0 0 1 1.797 2.04l20.545 59.497a5.257 5.257 0 0 1-3.249 6.675l-59.496 20.544a5.3 5.3 0 0 1-2.702.195l-14.543-6.792"
            fill="#838F96"></path>
        <path
            d="m79.84 18.54 14.02 7.28a5.274 5.274 0 0 1 1.797 2.04l20.545 59.497a5.257 5.257 0 0 1-3.249 6.675l-59.496 20.544a5.3 5.3 0 0 1-2.702.195l-14.543-6.792"
            stroke="#231F20" stroke-width="2.908" stroke-miterlimit="10"></path>
        <path
            d="m79.835 18.542-3.019 6.18 18.38 53.23 20.996 9.394-20.544-59.497a5.333 5.333 0 0 0-1.797-2.04l-14.02-7.28"
            fill="#BBBFBF"></path>
        <path
            d="m79.835 18.542-3.019 6.18 18.38 53.23 20.996 9.394-20.544-59.497a5.333 5.333 0 0 0-1.797-2.04l-14.02-7.28"
            stroke="#231F20" stroke-width="2.908" stroke-miterlimit="10"></path>
        <path
            d="M75.685 18.223 16.188 38.768a5.249 5.249 0 0 0-3.248 6.674l20.544 59.497a5.25 5.25 0 0 0 6.675 3.248l59.497-20.544a5.249 5.249 0 0 0 3.248-6.675L82.359 21.47a5.249 5.249 0 0 0-6.674-3.248Z"
            fill="#8A959A" stroke="#231F20" stroke-width="2.908" stroke-miterlimit="10"></path>
        <path
            d="m93.852 25.823-14.02-7.28a5.234 5.234 0 0 0-4.155-.32L16.18 38.769a5.256 5.256 0 0 0-3.248 6.675l20.544 59.496a5.223 5.223 0 0 0 2.723 3.029l14.544 6.792a5.179 5.179 0 0 0 2.701-.195l59.497-20.544a5.256 5.256 0 0 0 3.248-6.675L95.644 27.849a5.334 5.334 0 0 0-1.796-2.04l.004.014Z"
            stroke="#231F20" stroke-width="1.047" stroke-miterlimit="10"></path>
        <path
            d="M40.482 44.82c.494 1.428-.27 3-1.7 3.494l-3.903 1.347 1.494 4.33-.865.299-3.29-9.525 4.77-1.646a2.755 2.755 0 0 1 3.494 1.7Zm-.865.298a1.834 1.834 0 0 0-2.33-1.134l-3.903 1.348 1.196 3.464 3.903-1.348a1.834 1.834 0 0 0 1.134-2.33Z"
            fill="#fff"></path>
        <path
            d="m36.708 54.152-1.36.47-3.465-10.033 5.016-1.732a3.016 3.016 0 0 1 3.828 1.863 3.016 3.016 0 0 1-1.863 3.827l-3.642 1.258 1.495 4.329-.01.018Zm-1.037-.195.371-.129-1.495-4.329 4.15-1.433a2.495 2.495 0 0 0 1.54-3.162 2.495 2.495 0 0 0-3.162-1.538l-4.522 1.561 3.118 9.03Zm2.899-6.262-4.15 1.433-1.368-3.958 4.151-1.433c1.1-.38 2.288.21 2.662 1.295a2.104 2.104 0 0 1-1.295 2.663Zm-3.813.763 3.642-1.258a1.564 1.564 0 0 0 .972-1.997 1.564 1.564 0 0 0-1.997-.972l-3.642 1.258 1.025 2.969ZM51.31 47.863l.299.866-6.281 2.168-3.289-9.524.866-.299 2.99 8.659 5.415-1.87Z"
            fill="#fff"></path>
        <path
            d="m51.943 48.89-6.775 2.34-3.465-10.033 1.36-.47 2.99 8.659 5.416-1.87.47 1.36.004.014Zm-6.451 1.674 5.786-1.998-.129-.371-5.415 1.87-2.99-8.659-.37.128 3.117 9.03ZM61.184 44.611l.251.729-.866.298-.194-.563-2.025-2.3-4.44 1.533-.242 3.083.195.564-.866.299-.257-.743.798-10.12 1.003-.346 6.638 7.552.005.014Zm-3.49-2.579-3.315-3.762-.396 5.044 3.71-1.282Z"
            fill="#fff"></path>
        <path
            d="m61.765 45.502-1.36.47-.266-.77-1.872-2.123-4.109 1.42-.227 2.862.261.756-1.36.47-.375-1.086.827-10.3 1.333-.46.108.132 6.698 7.64.342.989Zm-1.037-.196.371-.128-.151-.44-6.485-7.375-.673.233-.786 9.885.152.44.37-.128-.142-.412.273-3.264 4.77-1.646 2.192 2.519.11.316Zm-2.581-3.154-4.453 1.537.478-6.056 3.975 4.519Zm-3.868.782 2.955-1.02-2.64-3.012-.315 4.032ZM66.73 32.851l.27.784-1.466 5.598 1.452 4.205-.866.3-1.452-4.206-4.608-3.5-.27-.784.865-.3.18.523 3.946 3.006 1.25-4.8-.181-.522.866-.3.014-.004Z"
            fill="#fff"></path>
        <path
            d="m67.323 43.582-1.36.47-1.51-4.37-4.608-3.5-.384-1.114 1.36-.47.238.687 3.57 2.72 1.13-4.343-.237-.687 1.36-.47.385 1.113-.022.07-1.45 5.515 1.51 4.37.018.01Zm-1.036-.196.37-.128-1.39-4.027.023-.069 1.448-5.515-.156-.453-.371.128.118.343-.022.07-1.351 5.173-4.321-3.292-.119-.343-.371.128.157.453 4.608 3.5 1.39 4.028-.013.004Z"
            fill="#fff"></path>
    </g>
    <defs>
        <filter id="filter0_d_4314_11435" x="1.813" y="8.811" width="132.936" height="126.94"
            filterUnits="userSpaceOnUse" color-interpolation-filters="sRGB">
            <feFlood flood-opacity="0" result="BackgroundImageFix"></feFlood>
            <feColorMatrix in="SourceAlpha" values="0 0 0 0 0 0 0 0 0 0 0 0 0 0 0 0 0 0 127 0" result="hardAlpha">
            </feColorMatrix>
            <feOffset dy="2.577"></feOffset>
            <feGaussianBlur stdDeviation="1.289"></feGaussianBlur>
            <feComposite in2="hardAlpha" operator="out"></feComposite>
            <feColorMatrix values="0 0 0 0 0 0 0 0 0 0 0 0 0 0 0 0 0 0 0.25 0"></feColorMatrix>
            <feBlend in2="BackgroundImageFix" result="effect1_dropShadow_4314_11435"></feBlend>
            <feBlend in="SourceGraphic" in2="effect1_dropShadow_4314_11435" result="shape"></feBlend>
        </filter>
    </defs>
</svg>